:SAMPLES-PER-SECOND 24
:FULLY-SPECIFIED
:DEGREES
367
root  -5.55357 34.0618 -2.28915 -170.462 7.33841 -179.409
RightUpLeg  -55.3512 -1.33664 -4.67302
RightLeg  50.8044 7.37175 9.24936
RightFoot  0.954387 -0.283284 2.69032
RightToes  -1.46215e-006 3.27826e-006 1.63871e-007
Spine  1.25983 -6.10994 -6.52496
Spine1  5.39865 -8.06796 7.87452
HEad  -16.4878 23.9313 -10.2803
LeftShoulder1  2.53265 -5.08592 -23.2618
LeftArm  2.94872 8.31168 -13.8865
LeftForeArm  128.344 -50.4234 -166.282
LeftHand  0.0446868 6.44655 6.04417
RightShoulder  3.43438 5.80421 31.0078
RightArm  12.5806 14.8645 41.013
RightForeArm  52.7925 77.6078 102.429
RightHand  -0.0467682 -4.98104 -5.20095
LeftUpLeg  29.1583 6.00117 11.4866
LeftLeg  2.01251 14.3003 -1.81903
LeftFoot  -21.4798 -2.51897 -29.2078
LeftToes  1.24762e-006 1.46925e-008 1.29056e-009
368
root  -5.50574 33.7558 -1.86708 -171.427 7.10019 -179.457
RightUpLeg  -55.799 -3.805 -3.3989
RightLeg  52.1202 8.40482 11.0697
RightFoot  1.46118 -0.213659 1.99248
RightToes  -1.46215e-006 3.27826e-006 1.63871e-007
Spine  4.37587 -9.66594 -15.1618
Spine1  3.95687 -14.1852 18.1232
HEad  -17.3021 33.8676 -14.7064
LeftShoulder1  1.82503 -4.55578 -15.8815
LeftArm  -6.87591 -15.9221 -8.17713
LeftForeArm  131.478 -76.5132 -132.008
LeftHand  -0.262984 0.321703 6.04295
RightShoulder  3.60145 5.93681 32.2674
RightArm  17.0302 -8.67823 32.2829
RightForeArm  82.6612 71.4348 139.515
RightHand  2.82798e-006 -6.81472 -2.77077
LeftUpLeg  29.3677 6.16115 11.1799
LeftLeg  2.23306 16.5147 -1.39771
LeftFoot  -24.6252 -3.0807 -27.2397
LeftToes  1.24762e-006 1.46925e-008 1.29056e-009
369
root  -5.44064 33.5294 -1.49236 -172.085 3.87939 -179.037
RightUpLeg  -55.9106 -7.24855 -2.44598
RightLeg  53.2452 8.55099 11.7304
RightFoot  1.55192 -0.215207 1.99781
RightToes  -1.46215e-006 3.27826e-006 1.63871e-007
Spine  4.72498 -10.9845 -18.0121
Spine1  5.47386 -16.572 20.6169
HEad  -15.0668 33.6323 -12.0982
LeftShoulder1  0.970426 -3.09491 -7.12725
LeftArm  -15.1723 -52.3652 -7.84392
LeftForeArm  35.0618 -33.0329 -4.01573
LeftHand  -0.865034 -0.567546 17.1949
RightShoulder  3.63484 6.05101 32.1598
RightArm  18.1455 -32.474 22.3736
RightForeArm  75.3356 68.2169 146.028
RightHand  0.0612417 -7.67687 -4.93874
LeftUpLeg  28.0609 6.68296 13.6031
LeftLeg  4.05756 14.0398 -0.452123
LeftFoot  -28.4677 -3.78347 -25.8389
LeftToes  1.24762e-006 1.46925e-008 1.29056e-009
370
root  -5.39205 33.4849 -1.33082 -172.428 3.84331 -178.387
RightUpLeg  -55.5341 -7.18902 -1.7806
RightLeg  52.915 8.79303 11.9184
RightFoot  1.62389 -0.261003 2.39217
RightToes  -1.46215e-006 3.27826e-006 1.63871e-007
Spine  3.93027 -12.0151 -17.6019
Spine1  7.84317 -17.7585 19.3647
HEad  -16.3732 33.4346 -12.6908
LeftShoulder1  0.678303 -1.97676 -4.5083
LeftArm  -50.5679 -68.7305 11.771
LeftForeArm  46.4755 6.08494 -10.485
LeftHand  -0.218728 3.42475 12.7693
RightShoulder  3.67907 6.28198 31.7097
RightArm  22.9541 -45.2519 17.3467
RightForeArm  56.335 70.8433 139.606
RightHand  0.168017 -7.48674 -11.2896
LeftUpLeg  28.1746 6.79857 14.3835
LeftLeg  4.34082 14.1742 -0.0489308
LeftFoot  -29.4484 -3.96949 -25.6285
LeftToes  1.24762e-006 1.46925e-008 1.29056e-009
371
root  -5.3257 33.596 -1.27176 -172.669 7.39371 -178.23
RightUpLeg  -54.9453 -4.24069 -1.44438
RightLeg  51.4432 9.52252 12.2343
RightFoot  2.33136 -0.271049 2.39327
RightToes  -1.46215e-006 3.27826e-006 1.63871e-007
Spine  3.60182 -12.7195 -16.8855
Spine1  8.76353 -18.2875 17.9585
HEad  -20.0296 36.2161 -17.0965
LeftShoulder1  0.625655 -1.18114 -5.57056
LeftArm  -54.2036 -65.028 22.4958
LeftForeArm  34.4554 7.93611 -12.1296
LeftHand  -0.436198 0.0440222 9.63041
RightShoulder  3.67497 6.41142 31.17
RightArm  27.4472 -46.695 16.6128
RightForeArm  48.8153 73.0603 132.719
RightHand  0.145653 -6.5756 -15.9188
LeftUpLeg  29.0991 6.87748 12.5581
LeftLeg  4.36735 18.5142 -0.221298
LeftFoot  -27.9443 -3.54985 -25.102
LeftToes  1.24762e-006 1.46925e-008 1.29056e-009
372
root  -5.28943 33.7129 -1.16626 -172.97 9.40692 -178.114
RightUpLeg  -54.3481 -3.131 -0.871965
RightLeg  50.2523 10.304 12.6812
RightFoot  3.33946 -0.259801 2.19318
RightToes  -1.46215e-006 3.27826e-006 1.63871e-007
Spine  3.37379 -12.4262 -16.027
Spine1  8.74738 -17.792 17.2727
HEad  -20.6832 37.1437 -18.9289
LeftShoulder1  0.588653 -0.690957 -6.31769
LeftArm  -49.3562 -62.9313 21.3579
LeftForeArm  34.4483 7.12132 -12.4215
LeftHand  -0.399228 0.405973 9.33228
RightShoulder  3.61747 6.37376 30.7234
RightArm  26.4131 -45.1329 19.0861
RightForeArm  51.033 73.4768 131.134
RightHand  0.104765 -6.34765 -14.8402
LeftUpLeg  29.4316 6.87485 11.2727
LeftLeg  4.64195 21.8042 0.00147509
LeftFoot  -27.0241 -3.26874 -24.5638
LeftToes  1.24762e-006 1.46925e-008 1.29056e-009
